<?xml version="1.0" encoding="UTF-8" standalone="no"?>
<svg
   xmlns:dc="http://purl.org/dc/elements/1.1/"
   xmlns:cc="http://creativecommons.org/ns#"
   xmlns:rdf="http://www.w3.org/1999/02/22-rdf-syntax-ns#"
   xmlns:svg="http://www.w3.org/2000/svg"
   xmlns="http://www.w3.org/2000/svg"
   xmlns:sodipodi="http://sodipodi.sourceforge.net/DTD/sodipodi-0.dtd"
   xmlns:inkscape="http://www.inkscape.org/namespaces/inkscape"
   width="70"
   height="43"
   viewBox="0 0 70 43"
   version="1.1"
   id="svg8"
   inkscape:version="1.0.2-2 (e86c870879, 2021-01-15)"
   sodipodi:docname="mouse_bothbuttons.svg">
  <defs
     id="defs2" />
  <sodipodi:namedview
     id="base"
     pagecolor="#ffffff"
     bordercolor="#666666"
     borderopacity="1.0"
     inkscape:pageopacity="0.0"
     inkscape:pageshadow="2"
     inkscape:zoom="13.510148"
     inkscape:cx="32.83375"
     inkscape:cy="19.511954"
     inkscape:document-units="px"
     inkscape:current-layer="layer1"
     inkscape:document-rotation="0"
     showgrid="true"
     units="px"
     inkscape:pagecheckerboard="true"
     inkscape:window-width="1920"
     inkscape:window-height="1027"
     inkscape:window-x="-8"
     inkscape:window-y="-8"
     inkscape:window-maximized="1"
     showguides="true"
     inkscape:guide-bbox="true"
     inkscape:snap-object-midpoints="true"
     inkscape:snap-page="false"
     lock-margins="true"
     fit-margin-top="0"
     fit-margin-left="0"
     fit-margin-right="0"
     fit-margin-bottom="0">
    <sodipodi:guide
       position="35,57.212311"
       orientation="-1,0"
       id="guide1917"
       inkscape:label=""
       inkscape:locked="false"
       inkscape:color="rgb(0,0,255)" />
    <sodipodi:guide
       position="1.0727769,28.5"
       orientation="0,1"
       id="guide1921"
       inkscape:label=""
       inkscape:locked="false"
       inkscape:color="rgb(0,0,255)" />
    <inkscape:grid
       type="xygrid"
       id="grid2748"
       originx="20"
       originy="-7" />
  </sodipodi:namedview>
  <metadata
     id="metadata5">
    <rdf:RDF>
      <cc:Work
         rdf:about="">
        <dc:format>image/svg+xml</dc:format>
        <dc:type
           rdf:resource="http://purl.org/dc/dcmitype/StillImage" />
        <dc:title></dc:title>
      </cc:Work>
    </rdf:RDF>
  </metadata>
  <g
     inkscape:label="Layer 1"
     inkscape:groupmode="layer"
     id="layer1"
     transform="translate(10,-3.5)">
    <path
       id="path2781-2"
       style="fill:#e0cb0b;fill-opacity:1;fill-rule:evenodd;stroke:#000000;stroke-width:3;stroke-linecap:butt;stroke-linejoin:miter;stroke-miterlimit:4;stroke-dasharray:none;stroke-dashoffset:0;stroke-opacity:1;paint-order:normal"
       d="m 21,5 c -4.469677,0 -8.068359,3.5986824 -8.068359,8.068359 V 25 h 7 c 1.25,0 2.1875,-0.3125 2.890625,-0.78125 C 23.525391,23.75 23.994141,23.125 24.306641,22.5 c 0.625,-1.25 0.625,-2.5 0.625,-2.5 h -0.25 c -1.2465,0 -2.25,-1.0035 -2.25,-2.25 v -5.5 c 0,-1.2465 1.0035,-2.25 2.25,-2.25 h 0.5 c 1.2465,0 2.25,1.0035 2.25,2.25 v 5.5 c 0,1.2465 -1.0035,2.25 -2.25,2.25 h -0.25 c 0,1.25 0.3125,2.1875 0.78125,2.890625 0.46875,0.703125 1.09375,1.171875 1.71875,1.484375 1.25,0.625 2.5,0.625 2.5,0.625 h 7 V 13.068359 C 36.931641,8.5986824 33.332959,5 28.863282,5 Z" />
    <path
       style="fill:none;stroke:#000000;stroke-width:3;stroke-linecap:butt;stroke-linejoin:miter;stroke-miterlimit:4;stroke-dasharray:none;stroke-opacity:1"
       d="M 25,10 V 5"
       id="path2756" />
    <path
       style="display:none;fill:none;stroke:#000000;stroke-width:3;stroke-linecap:butt;stroke-linejoin:miter;stroke-miterlimit:4;stroke-dasharray:none;stroke-opacity:1"
       d="m 25,20 c 0,5 5,5 5,5 h 7"
       id="path2760" />
    <path
       style="display:none;fill:none;stroke:#000000;stroke-width:3;stroke-linecap:butt;stroke-linejoin:miter;stroke-miterlimit:4;stroke-dasharray:none;stroke-opacity:1"
       d="m 25,20 c 0,5 -5,5 -5,5 h -7"
       id="path2762" />
    <path
       id="rect2765"
       style="fill:#ffffff;fill-opacity:0.5;fill-rule:evenodd;stroke:#000000;stroke-width:3;stroke-linecap:butt;stroke-linejoin:miter;stroke-miterlimit:4;stroke-dasharray:none;stroke-dashoffset:0;stroke-opacity:1;paint-order:normal"
       d="m 13,25 v 8 c 0,6.648 5.352,12 12,12 6.648,0 12,-5.352 12,-12 v -8 h -7 c 0,0 -1.25,0 -2.5,-0.625 C 26.875,24.0625 26.25,23.59375 25.78125,22.890625 25.3125,22.1875 25,21.25 25,20 c 0,0 0,1.25 -0.625,2.5 -0.3125,0.625 -0.78125,1.25 -1.484375,1.71875 C 22.1875,24.6875 21.25,25 20,25 Z" />
    <rect
       style="fill:#ffffff;fill-opacity:0.5;stroke:#000000;stroke-width:3;stroke-linecap:butt;stroke-linejoin:bevel;stroke-miterlimit:4;stroke-dasharray:none;stroke-dashoffset:0;stroke-opacity:1;paint-order:normal"
       id="rect25"
       width="5"
       height="10"
       x="22.5"
       y="10"
       rx="2.25" />
    <path
       style="fill:none;stroke:#ffffff;stroke-width:1.33;stroke-linecap:round;stroke-linejoin:miter;stroke-miterlimit:4;stroke-dasharray:none;stroke-opacity:1"
       d="m 8,14.5 -17,12"
       id="path32"
       sodipodi:nodetypes="cc" />
    <path
       style="fill:none;stroke:#ffffff;stroke-width:1.33;stroke-linecap:round;stroke-linejoin:round;stroke-miterlimit:4;stroke-dasharray:none;stroke-opacity:1"
       d="m 42,14.5 17,12"
       id="path34"
       sodipodi:nodetypes="cc" />
  </g>
</svg>
